<svg xmlns="http://www.w3.org/2000/svg" xmlns:xlink="http://www.w3.org/1999/xlink" width="500" zoomAndPan="magnify" viewBox="0 0 375 374.999991" height="500" preserveAspectRatio="xMidYMid meet" version="1.0"><defs><g/><clipPath id="id1"><path d="M 7.550781 139.523438 L 176.300781 139.523438 L 176.300781 224.273438 L 7.550781 224.273438 Z M 7.550781 139.523438 " clip-rule="nonzero"/></clipPath></defs><g clip-path="url(#id1)"><path fill="rgb(82.348633%, 76.078796%, 69.018555%)" d="M 7.550781 97.21875 L 176.300781 97.21875 L 176.300781 265.96875 L 7.550781 265.96875 Z M 7.550781 97.21875 " fill-opacity="1" fill-rule="nonzero"/></g><g fill="rgb(12.159729%, 12.159729%, 14.118958%)" fill-opacity="1"><g transform="translate(9.157128, 216.66259)"><g><path d="M 49.253906 -36.164062 C 55.945312 -38.492188 59.433594 -43.144531 59.433594 -49.640625 C 59.433594 -58.5625 53.230469 -65.15625 42.371094 -66.511719 C 38.976562 -66.898438 37.230469 -66.898438 33.742188 -66.898438 L 8.242188 -66.898438 L 8.242188 0 L 33.644531 0 C 37.617188 0 39.847656 0 43.144531 -0.386719 C 52.164062 -1.550781 61.859375 -7.660156 61.859375 -20.070312 C 61.859375 -28.503906 57.785156 -33.933594 49.253906 -36.164062 Z M 23.464844 -55.070312 L 32.285156 -55.070312 C 33.835938 -55.070312 35.582031 -54.972656 36.941406 -54.78125 C 40.914062 -54.199219 43.535156 -52.066406 43.535156 -47.605469 C 43.535156 -43.144531 41.207031 -40.914062 37.039062 -40.238281 C 35.679688 -40.042969 34.128906 -39.945312 32.578125 -39.945312 L 23.464844 -39.945312 Z M 38.492188 -12.023438 C 37.230469 -11.925781 35.679688 -11.925781 34.128906 -11.925781 L 23.464844 -11.925781 L 23.464844 -28.796875 L 33.546875 -28.796875 C 35.097656 -28.796875 36.648438 -28.796875 38.199219 -28.601562 C 42.46875 -28.214844 45.957031 -25.695312 45.957031 -20.265625 C 45.957031 -15.222656 42.46875 -12.3125 38.492188 -12.023438 Z M 38.492188 -12.023438 "/></g></g></g><g fill="rgb(12.159729%, 12.159729%, 14.118958%)" fill-opacity="1"><g transform="translate(69.07601, 216.66259)"><g><path d="M 20.554688 -71.261719 L 5.332031 -71.261719 L 5.332031 -17.355469 C 5.332031 -13.769531 5.332031 -11.246094 5.527344 -8.726562 C 5.914062 -1.9375 10.179688 0.871094 17.453125 0.871094 C 20.84375 0.871094 23.65625 0.679688 26.566406 0.386719 L 26.566406 -9.988281 C 22.007812 -9.792969 20.941406 -10.566406 20.652344 -12.894531 C 20.554688 -14.253906 20.554688 -15.417969 20.554688 -17.644531 Z M 20.554688 -71.261719 "/></g></g></g><g fill="rgb(12.159729%, 12.159729%, 14.118958%)" fill-opacity="1"><g transform="translate(92.442421, 216.66259)"><g><path d="M 35.875 0 L 50.707031 0 C 49.933594 -5.71875 49.738281 -9.210938 49.738281 -13.089844 L 49.738281 -28.796875 C 49.738281 -31.800781 49.640625 -34.710938 49.449219 -37.132812 C 48.671875 -46.34375 43.144531 -53.035156 27.828125 -53.035156 C 15.222656 -53.035156 5.234375 -46.34375 4.945312 -34.515625 L 19.488281 -34.515625 C 19.875 -39.65625 22.492188 -42.5625 27.246094 -42.5625 C 31.800781 -42.5625 34.128906 -40.042969 34.417969 -36.941406 C 34.613281 -35.195312 34.613281 -33.835938 34.613281 -32.480469 L 34.613281 -31.609375 L 31.316406 -31.609375 C 13.089844 -31.609375 3.101562 -25.015625 3.101562 -13.769531 C 3.101562 -3.976562 10.957031 1.355469 19.683594 1.355469 C 24.433594 1.355469 28.796875 0.289062 32.480469 -2.035156 L 34.808594 -7.5625 Z M 25.695312 -9.113281 C 21.523438 -9.113281 18.710938 -11.148438 18.710938 -15.027344 C 18.710938 -21.039062 25.207031 -23.367188 34.613281 -22.589844 L 34.613281 -18.808594 C 34.613281 -12.410156 30.25 -9.113281 25.695312 -9.113281 Z M 25.695312 -9.113281 "/></g></g></g><g fill="rgb(12.159729%, 12.159729%, 14.118958%)" fill-opacity="1"><g transform="translate(143.150468, 216.66259)"><g><path d="M 55.554688 -38.78125 C 54.390625 -47.800781 48.089844 -53.035156 37.230469 -53.035156 C 32.382812 -53.035156 28.699219 -52.066406 25.207031 -49.738281 L 20.941406 -43.535156 L 20.941406 -51.675781 L 5.71875 -51.675781 L 5.71875 0 L 20.941406 0 L 20.941406 -23.949219 C 20.941406 -37.132812 25.402344 -42.5625 31.414062 -42.5625 C 37.328125 -42.5625 40.238281 -39.265625 40.625 -34.03125 C 40.820312 -31.414062 40.820312 -28.796875 40.820312 -26.855469 L 40.820312 0 L 56.039062 0 L 56.039062 -29.183594 C 56.039062 -33.351562 55.945312 -36.164062 55.554688 -38.78125 Z M 55.554688 -38.78125 "/></g></g></g><g fill="rgb(12.159729%, 12.159729%, 14.118958%)" fill-opacity="1"><g transform="translate(199.481968, 216.66259)"><g><path d="M 13.089844 -71.652344 C 7.660156 -71.652344 4.945312 -69.226562 4.945312 -63.992188 C 4.945312 -58.660156 7.660156 -56.234375 13.089844 -56.234375 C 18.421875 -56.234375 21.136719 -58.660156 21.136719 -63.992188 C 21.136719 -69.226562 18.421875 -71.652344 13.089844 -71.652344 Z M 20.652344 -51.675781 L 5.429688 -51.675781 L 5.429688 0.0976562 C 5.429688 1.550781 5.429688 3.296875 5.234375 4.652344 C 4.847656 8.921875 2.132812 10.082031 -3.976562 9.5 L -3.976562 20.070312 C -2.328125 20.265625 -0.484375 20.359375 1.453125 20.359375 C 14.640625 20.359375 19.777344 15.027344 20.457031 6.207031 C 20.554688 4.460938 20.652344 1.9375 20.652344 -0.0976562 Z M 20.652344 -51.675781 "/></g></g></g><g fill="rgb(12.159729%, 12.159729%, 14.118958%)" fill-opacity="1"><g transform="translate(220.812318, 216.66259)"><g><path d="M 29.765625 -53.035156 C 12.605469 -53.035156 2.519531 -41.980469 2.519531 -25.886719 C 2.519531 -9.792969 12.605469 1.355469 29.765625 1.355469 C 46.828125 1.355469 57.011719 -9.792969 57.011719 -25.886719 C 57.011719 -41.980469 46.828125 -53.035156 29.765625 -53.035156 Z M 29.765625 -9.113281 C 22.492188 -9.113281 18.128906 -15.125 18.128906 -25.886719 C 18.128906 -36.648438 22.492188 -42.5625 29.765625 -42.5625 C 36.941406 -42.5625 41.304688 -36.648438 41.304688 -25.886719 C 41.304688 -15.125 36.941406 -9.113281 29.765625 -9.113281 Z M 29.765625 -9.113281 "/></g></g></g><g fill="rgb(12.159729%, 12.159729%, 14.118958%)" fill-opacity="1"><g transform="translate(275.398608, 216.66259)"><g><path d="M 29.765625 -53.035156 C 12.605469 -53.035156 2.519531 -41.980469 2.519531 -25.886719 C 2.519531 -9.792969 12.605469 1.355469 29.765625 1.355469 C 46.828125 1.355469 57.011719 -9.792969 57.011719 -25.886719 C 57.011719 -41.980469 46.828125 -53.035156 29.765625 -53.035156 Z M 29.765625 -9.113281 C 22.492188 -9.113281 18.128906 -15.125 18.128906 -25.886719 C 18.128906 -36.648438 22.492188 -42.5625 29.765625 -42.5625 C 36.941406 -42.5625 41.304688 -36.648438 41.304688 -25.886719 C 41.304688 -15.125 36.941406 -9.113281 29.765625 -9.113281 Z M 29.765625 -9.113281 "/></g></g></g><g fill="rgb(12.159729%, 12.159729%, 14.118958%)" fill-opacity="1"><g transform="translate(329.984917, 216.66259)"><g><path d="M 19.101562 -19.683594 L 20.265625 -66.898438 L 6.011719 -66.898438 L 7.175781 -19.683594 Z M 13.089844 -14.738281 C 8.339844 -14.738281 5.042969 -11.441406 5.042969 -6.691406 C 5.042969 -1.9375 8.339844 1.355469 13.089844 1.355469 C 17.839844 1.355469 21.234375 -1.9375 21.234375 -6.691406 C 21.234375 -11.441406 17.839844 -14.738281 13.089844 -14.738281 Z M 13.089844 -14.738281 "/></g></g></g><g fill="rgb(12.159729%, 12.159729%, 14.118958%)" fill-opacity="1"><g transform="translate(34.73864, 247.816169)"><g><path d="M 2.859375 -7.429688 L 4.457031 -7.429688 L 4.457031 -8.496094 L 2.859375 -8.496094 L 2.859375 -10.480469 L 1.46875 -10.480469 L 1.46875 -8.496094 L 0.324219 -8.496094 L 0.324219 -7.429688 L 1.46875 -7.429688 L 1.46875 -2.4375 C 1.46875 -1.953125 1.46875 -1.597656 1.484375 -1.371094 C 1.566406 -0.308594 2.117188 0.128906 3.183594 0.128906 C 3.570312 0.128906 3.957031 0.113281 4.359375 0.046875 L 4.359375 -0.96875 C 3.277344 -0.839844 2.941406 -1.015625 2.875 -1.839844 C 2.859375 -2.066406 2.859375 -2.210938 2.859375 -2.503906 Z M 2.859375 -7.429688 "/></g></g></g><g fill="rgb(12.159729%, 12.159729%, 14.118958%)" fill-opacity="1"><g transform="translate(38.98464, 247.816169)"><g><path d="M 4.730469 -8.785156 C 1.824219 -8.785156 0.484375 -6.703125 0.484375 -4.28125 C 0.484375 -1.875 1.824219 0.226562 4.730469 0.226562 C 7.640625 0.226562 8.980469 -1.875 8.980469 -4.28125 C 8.980469 -6.703125 7.640625 -8.785156 4.730469 -8.785156 Z M 4.730469 -0.839844 C 3.003906 -0.839844 2.003906 -2.277344 2.003906 -4.28125 C 2.003906 -6.300781 3.003906 -7.71875 4.730469 -7.71875 C 6.460938 -7.71875 7.460938 -6.300781 7.460938 -4.28125 C 7.460938 -2.277344 6.460938 -0.839844 4.730469 -0.839844 Z M 4.730469 -0.839844 "/></g></g></g><g fill="rgb(12.159729%, 12.159729%, 14.118958%)" fill-opacity="1"><g transform="translate(47.638733, 247.816169)"><g><path d="M 5.492188 -8.785156 C 4.621094 -8.785156 3.714844 -8.511719 3.230469 -8.109375 L 2.585938 -7.1875 L 2.585938 -8.558594 L 1.195312 -8.558594 L 1.195312 3.164062 L 2.585938 3.164062 L 2.585938 -1.179688 L 3.148438 -0.339844 C 3.585938 0.015625 4.488281 0.226562 5.199219 0.226562 C 7.414062 0.226562 9.382812 -1.242188 9.382812 -4.410156 C 9.382812 -6.914062 7.996094 -8.785156 5.492188 -8.785156 Z M 5.199219 -0.839844 C 3.972656 -0.839844 2.585938 -1.679688 2.585938 -3.890625 L 2.585938 -4.359375 C 2.585938 -6.816406 3.859375 -7.71875 5.28125 -7.71875 C 6.992188 -7.71875 7.867188 -6.1875 7.867188 -4.246094 C 7.867188 -2.003906 6.703125 -0.839844 5.199219 -0.839844 Z M 5.199219 -0.839844 "/></g></g></g><g fill="rgb(12.159729%, 12.159729%, 14.118958%)" fill-opacity="1"><g transform="translate(56.696501, 247.816169)"><g/></g></g><g fill="rgb(12.159729%, 12.159729%, 14.118958%)" fill-opacity="1"><g transform="translate(59.376247, 247.816169)"><g><path d="M 8.398438 -6.28125 C 8.269531 -7.785156 7.21875 -8.785156 5.347656 -8.785156 C 4.472656 -8.785156 3.84375 -8.640625 3.117188 -8.074219 L 2.585938 -7.089844 L 2.585938 -8.558594 L 1.195312 -8.558594 L 1.195312 0 L 2.585938 0 L 2.585938 -3.761719 C 2.585938 -6.6875 3.714844 -7.6875 5.054688 -7.6875 C 6.378906 -7.6875 6.929688 -6.945312 7.007812 -5.945312 C 7.042969 -5.507812 7.042969 -5.152344 7.042969 -4.714844 L 7.042969 0 L 8.429688 0 L 8.429688 -4.8125 C 8.429688 -5.507812 8.429688 -5.847656 8.398438 -6.28125 Z M 8.398438 -6.28125 "/></g></g></g><g fill="rgb(12.159729%, 12.159729%, 14.118958%)" fill-opacity="1"><g transform="translate(68.143364, 247.816169)"><g><path d="M 4.730469 -8.785156 C 1.824219 -8.785156 0.484375 -6.703125 0.484375 -4.28125 C 0.484375 -1.875 1.824219 0.226562 4.730469 0.226562 C 7.640625 0.226562 8.980469 -1.875 8.980469 -4.28125 C 8.980469 -6.703125 7.640625 -8.785156 4.730469 -8.785156 Z M 4.730469 -0.839844 C 3.003906 -0.839844 2.003906 -2.277344 2.003906 -4.28125 C 2.003906 -6.300781 3.003906 -7.71875 4.730469 -7.71875 C 6.460938 -7.71875 7.460938 -6.300781 7.460938 -4.28125 C 7.460938 -2.277344 6.460938 -0.839844 4.730469 -0.839844 Z M 4.730469 -0.839844 "/></g></g></g><g fill="rgb(12.159729%, 12.159729%, 14.118958%)" fill-opacity="1"><g transform="translate(76.797459, 247.816169)"><g><path d="M 2.859375 -7.429688 L 4.457031 -7.429688 L 4.457031 -8.496094 L 2.859375 -8.496094 L 2.859375 -10.480469 L 1.46875 -10.480469 L 1.46875 -8.496094 L 0.324219 -8.496094 L 0.324219 -7.429688 L 1.46875 -7.429688 L 1.46875 -2.4375 C 1.46875 -1.953125 1.46875 -1.597656 1.484375 -1.371094 C 1.566406 -0.308594 2.117188 0.128906 3.183594 0.128906 C 3.570312 0.128906 3.957031 0.113281 4.359375 0.046875 L 4.359375 -0.96875 C 3.277344 -0.839844 2.941406 -1.015625 2.875 -1.839844 C 2.859375 -2.066406 2.859375 -2.210938 2.859375 -2.503906 Z M 2.859375 -7.429688 "/></g></g></g><g fill="rgb(12.159729%, 12.159729%, 14.118958%)" fill-opacity="1"><g transform="translate(81.043461, 247.816169)"><g><path d="M 4.507812 -8.785156 C 2.359375 -8.785156 0.484375 -7.15625 0.484375 -4.265625 C 0.484375 -1.128906 2.132812 0.226562 4.296875 0.226562 C 6.203125 0.226562 7.625 -0.742188 8.042969 -2.730469 L 6.589844 -2.730469 C 6.300781 -1.484375 5.507812 -0.839844 4.378906 -0.839844 C 3.101562 -0.839844 2.003906 -1.875 2.003906 -4.359375 C 2.003906 -6.671875 3.132812 -7.71875 4.472656 -7.71875 C 5.621094 -7.71875 6.363281 -7.058594 6.671875 -5.683594 L 8.125 -5.683594 C 7.867188 -7.558594 6.558594 -8.785156 4.507812 -8.785156 Z M 4.507812 -8.785156 "/></g></g></g><g fill="rgb(12.159729%, 12.159729%, 14.118958%)" fill-opacity="1"><g transform="translate(88.777181, 247.816169)"><g><path d="M 8.398438 -6.28125 C 8.269531 -7.785156 7.21875 -8.785156 5.347656 -8.785156 C 4.472656 -8.785156 3.84375 -8.640625 3.117188 -8.074219 L 2.585938 -7.089844 L 2.585938 -11.953125 L 1.195312 -11.953125 L 1.195312 0 L 2.585938 0 L 2.585938 -3.761719 C 2.585938 -6.6875 3.714844 -7.65625 5.054688 -7.6875 C 6.378906 -7.71875 6.929688 -6.945312 7.007812 -5.945312 C 7.042969 -5.507812 7.042969 -5.152344 7.042969 -4.714844 L 7.042969 0 L 8.429688 0 L 8.429688 -4.8125 C 8.429688 -5.507812 8.429688 -5.847656 8.398438 -6.28125 Z M 8.398438 -6.28125 "/></g></g></g><g fill="rgb(12.159729%, 12.159729%, 14.118958%)" fill-opacity="1"><g transform="translate(97.5443, 247.816169)"><g/></g></g><g fill="rgb(12.159729%, 12.159729%, 14.118958%)" fill-opacity="1"><g transform="translate(100.224049, 247.816169)"><g><path d="M 8.222656 -4.523438 C 8.222656 -7.027344 6.914062 -8.785156 4.554688 -8.785156 C 2.210938 -8.785156 0.484375 -7.027344 0.484375 -4.246094 C 0.484375 -1.226562 2.148438 0.226562 4.378906 0.226562 C 6.136719 0.226562 7.769531 -0.695312 8.109375 -2.761719 L 6.65625 -2.761719 C 6.460938 -1.535156 5.554688 -0.839844 4.441406 -0.839844 C 3.183594 -0.839844 2.117188 -1.597656 1.988281 -3.859375 L 8.1875 -3.859375 C 8.222656 -4.167969 8.222656 -4.394531 8.222656 -4.523438 Z M 4.523438 -7.71875 C 5.925781 -7.71875 6.6875 -6.703125 6.816406 -4.925781 L 2.003906 -4.925781 C 2.164062 -6.75 3.164062 -7.71875 4.523438 -7.71875 Z M 4.523438 -7.71875 "/></g></g></g><g fill="rgb(12.159729%, 12.159729%, 14.118958%)" fill-opacity="1"><g transform="translate(108.280709, 247.816169)"><g><path d="M 3.910156 -4.117188 L 3.910156 -5.023438 L 0.515625 -5.023438 L 0.515625 -4.117188 Z M 3.910156 -4.117188 "/></g></g></g><g fill="rgb(12.159729%, 12.159729%, 14.118958%)" fill-opacity="1"><g transform="translate(111.896986, 247.816169)"><g><path d="M 4.507812 -8.785156 C 2.359375 -8.785156 0.484375 -7.15625 0.484375 -4.265625 C 0.484375 -1.128906 2.132812 0.226562 4.296875 0.226562 C 6.203125 0.226562 7.625 -0.742188 8.042969 -2.730469 L 6.589844 -2.730469 C 6.300781 -1.484375 5.507812 -0.839844 4.378906 -0.839844 C 3.101562 -0.839844 2.003906 -1.875 2.003906 -4.359375 C 2.003906 -6.671875 3.132812 -7.71875 4.472656 -7.71875 C 5.621094 -7.71875 6.363281 -7.058594 6.671875 -5.683594 L 8.125 -5.683594 C 7.867188 -7.558594 6.558594 -8.785156 4.507812 -8.785156 Z M 4.507812 -8.785156 "/></g></g></g><g fill="rgb(12.159729%, 12.159729%, 14.118958%)" fill-opacity="1"><g transform="translate(119.630702, 247.816169)"><g><path d="M 4.730469 -8.785156 C 1.824219 -8.785156 0.484375 -6.703125 0.484375 -4.28125 C 0.484375 -1.875 1.824219 0.226562 4.730469 0.226562 C 7.640625 0.226562 8.980469 -1.875 8.980469 -4.28125 C 8.980469 -6.703125 7.640625 -8.785156 4.730469 -8.785156 Z M 4.730469 -0.839844 C 3.003906 -0.839844 2.003906 -2.277344 2.003906 -4.28125 C 2.003906 -6.300781 3.003906 -7.71875 4.730469 -7.71875 C 6.460938 -7.71875 7.460938 -6.300781 7.460938 -4.28125 C 7.460938 -2.277344 6.460938 -0.839844 4.730469 -0.839844 Z M 4.730469 -0.839844 "/></g></g></g><g fill="rgb(12.159729%, 12.159729%, 14.118958%)" fill-opacity="1"><g transform="translate(128.284792, 247.816169)"><g><path d="M 12.582031 -6.703125 C 12.386719 -7.882812 11.515625 -8.785156 9.980469 -8.785156 C 9.222656 -8.785156 8.609375 -8.640625 8.171875 -8.285156 L 7.414062 -7.1875 C 7.089844 -8.125 6.25 -8.785156 4.941406 -8.785156 C 4.183594 -8.785156 3.570312 -8.640625 3.132812 -8.285156 L 2.585938 -7.316406 L 2.585938 -8.558594 L 1.195312 -8.558594 L 1.195312 0 L 2.585938 0 L 2.585938 -4.230469 C 2.585938 -6.832031 3.375 -7.6875 4.457031 -7.6875 C 5.425781 -7.6875 6.039062 -7.21875 6.167969 -6.25 C 6.21875 -5.816406 6.234375 -5.347656 6.234375 -4.585938 L 6.234375 0 L 7.625 0 L 7.625 -4.230469 C 7.625 -6.832031 8.414062 -7.6875 9.496094 -7.6875 C 10.464844 -7.6875 11.078125 -7.21875 11.210938 -6.25 C 11.257812 -5.816406 11.273438 -5.347656 11.273438 -4.585938 L 11.273438 0 L 12.664062 0 L 12.664062 -5.234375 C 12.664062 -5.925781 12.648438 -6.265625 12.582031 -6.703125 Z M 12.582031 -6.703125 "/></g></g></g><g fill="rgb(12.159729%, 12.159729%, 14.118958%)" fill-opacity="1"><g transform="translate(141.282393, 247.816169)"><g><path d="M 12.582031 -6.703125 C 12.386719 -7.882812 11.515625 -8.785156 9.980469 -8.785156 C 9.222656 -8.785156 8.609375 -8.640625 8.171875 -8.285156 L 7.414062 -7.1875 C 7.089844 -8.125 6.25 -8.785156 4.941406 -8.785156 C 4.183594 -8.785156 3.570312 -8.640625 3.132812 -8.285156 L 2.585938 -7.316406 L 2.585938 -8.558594 L 1.195312 -8.558594 L 1.195312 0 L 2.585938 0 L 2.585938 -4.230469 C 2.585938 -6.832031 3.375 -7.6875 4.457031 -7.6875 C 5.425781 -7.6875 6.039062 -7.21875 6.167969 -6.25 C 6.21875 -5.816406 6.234375 -5.347656 6.234375 -4.585938 L 6.234375 0 L 7.625 0 L 7.625 -4.230469 C 7.625 -6.832031 8.414062 -7.6875 9.496094 -7.6875 C 10.464844 -7.6875 11.078125 -7.21875 11.210938 -6.25 C 11.257812 -5.816406 11.273438 -5.347656 11.273438 -4.585938 L 11.273438 0 L 12.664062 0 L 12.664062 -5.234375 C 12.664062 -5.925781 12.648438 -6.265625 12.582031 -6.703125 Z M 12.582031 -6.703125 "/></g></g></g><g fill="rgb(12.159729%, 12.159729%, 14.118958%)" fill-opacity="1"><g transform="translate(154.279994, 247.816169)"><g><path d="M 8.222656 -4.523438 C 8.222656 -7.027344 6.914062 -8.785156 4.554688 -8.785156 C 2.210938 -8.785156 0.484375 -7.027344 0.484375 -4.246094 C 0.484375 -1.226562 2.148438 0.226562 4.378906 0.226562 C 6.136719 0.226562 7.769531 -0.695312 8.109375 -2.761719 L 6.65625 -2.761719 C 6.460938 -1.535156 5.554688 -0.839844 4.441406 -0.839844 C 3.183594 -0.839844 2.117188 -1.597656 1.988281 -3.859375 L 8.1875 -3.859375 C 8.222656 -4.167969 8.222656 -4.394531 8.222656 -4.523438 Z M 4.523438 -7.71875 C 5.925781 -7.71875 6.6875 -6.703125 6.816406 -4.925781 L 2.003906 -4.925781 C 2.164062 -6.75 3.164062 -7.71875 4.523438 -7.71875 Z M 4.523438 -7.71875 "/></g></g></g><g fill="rgb(12.159729%, 12.159729%, 14.118958%)" fill-opacity="1"><g transform="translate(162.336649, 247.816169)"><g><path d="M 4.554688 -8.753906 C 4.152344 -8.753906 3.714844 -8.609375 3.359375 -8.367188 L 2.585938 -7.21875 L 2.585938 -8.558594 L 1.195312 -8.558594 L 1.195312 0 L 2.585938 0 L 2.585938 -4.878906 C 2.585938 -6.832031 3.683594 -7.6875 5.136719 -7.589844 L 5.136719 -8.640625 C 4.976562 -8.722656 4.78125 -8.753906 4.554688 -8.753906 Z M 4.554688 -8.753906 "/></g></g></g><g fill="rgb(12.159729%, 12.159729%, 14.118958%)" fill-opacity="1"><g transform="translate(166.857142, 247.816169)"><g><path d="M 4.507812 -8.785156 C 2.359375 -8.785156 0.484375 -7.15625 0.484375 -4.265625 C 0.484375 -1.128906 2.132812 0.226562 4.296875 0.226562 C 6.203125 0.226562 7.625 -0.742188 8.042969 -2.730469 L 6.589844 -2.730469 C 6.300781 -1.484375 5.507812 -0.839844 4.378906 -0.839844 C 3.101562 -0.839844 2.003906 -1.875 2.003906 -4.359375 C 2.003906 -6.671875 3.132812 -7.71875 4.472656 -7.71875 C 5.621094 -7.71875 6.363281 -7.058594 6.671875 -5.683594 L 8.125 -5.683594 C 7.867188 -7.558594 6.558594 -8.785156 4.507812 -8.785156 Z M 4.507812 -8.785156 "/></g></g></g><g fill="rgb(12.159729%, 12.159729%, 14.118958%)" fill-opacity="1"><g transform="translate(174.590857, 247.816169)"><g><path d="M 8.222656 -4.523438 C 8.222656 -7.027344 6.914062 -8.785156 4.554688 -8.785156 C 2.210938 -8.785156 0.484375 -7.027344 0.484375 -4.246094 C 0.484375 -1.226562 2.148438 0.226562 4.378906 0.226562 C 6.136719 0.226562 7.769531 -0.695312 8.109375 -2.761719 L 6.65625 -2.761719 C 6.460938 -1.535156 5.554688 -0.839844 4.441406 -0.839844 C 3.183594 -0.839844 2.117188 -1.597656 1.988281 -3.859375 L 8.1875 -3.859375 C 8.222656 -4.167969 8.222656 -4.394531 8.222656 -4.523438 Z M 4.523438 -7.71875 C 5.925781 -7.71875 6.6875 -6.703125 6.816406 -4.925781 L 2.003906 -4.925781 C 2.164062 -6.75 3.164062 -7.71875 4.523438 -7.71875 Z M 4.523438 -7.71875 "/></g></g></g><g fill="rgb(12.159729%, 12.159729%, 14.118958%)" fill-opacity="1"><g transform="translate(182.647512, 247.816169)"><g><path d="M 2.585938 -2.90625 L 2.777344 -11.144531 L 1.128906 -11.144531 L 1.324219 -2.90625 Z M 1.953125 -1.839844 C 1.355469 -1.839844 0.921875 -1.40625 0.921875 -0.808594 C 0.921875 -0.210938 1.355469 0.226562 1.953125 0.226562 C 2.550781 0.226562 2.988281 -0.210938 2.988281 -0.808594 C 2.988281 -1.40625 2.550781 -1.839844 1.953125 -1.839844 Z M 1.953125 -1.839844 "/></g></g></g></svg>